<svg width="101" height="26" viewBox="0 0 101 26" fill="none" xmlns="http://www.w3.org/2000/svg">
<path d="M39.8949 22.8519C38.7683 22.8519 37.7209 22.6759 36.7528 22.3238C35.8022 21.9717 34.9661 21.4701 34.2444 20.8188C33.5403 20.1674 32.9858 19.3929 32.5809 18.4952C32.1936 17.5798 32 16.5677 32 15.4587C32 14.3145 32.2024 13.2759 32.6073 12.343C33.0122 11.41 33.5755 10.6091 34.2972 9.94017C35.0189 9.27126 35.8462 8.76078 36.7792 8.40872C37.7121 8.03906 38.6979 7.85423 39.7365 7.85423C40.6166 7.85423 41.4439 7.97745 42.2185 8.22389C42.993 8.45273 43.6707 8.78718 44.2516 9.22725C44.8501 9.64972 45.3078 10.1602 45.6246 10.7587C45.9591 11.3572 46.1263 12.0085 46.1263 12.7126C46.1263 13.628 45.8623 14.3937 45.3342 15.0098C44.8061 15.6259 44.102 16.1188 43.2218 16.4884C42.3593 16.8405 41.4087 17.0869 40.3702 17.2278C39.3316 17.351 38.3106 17.395 37.3073 17.3598C37.1488 17.3422 36.964 17.3334 36.7528 17.3334C36.5415 17.3334 36.3479 17.3334 36.1719 17.3334C36.0135 17.3158 35.9078 17.307 35.855 17.307C35.9606 17.7823 36.2071 18.2223 36.5944 18.6272C36.9992 19.0321 37.4921 19.3489 38.073 19.5777C38.6539 19.789 39.2788 19.8946 39.9477 19.8946C40.5286 19.8946 41.0919 19.7978 41.6376 19.6042C42.1833 19.4105 42.6849 19.1465 43.1426 18.812C43.6179 18.46 44.0052 18.0815 44.3044 17.6766L46.8656 19.6042C46.3023 20.3435 45.651 20.9596 44.9117 21.4525C44.1724 21.9277 43.3803 22.2798 42.5353 22.5086C41.6904 22.7375 40.8102 22.8519 39.8949 22.8519ZM37.4393 14.6929C38.0202 14.6929 38.6011 14.6665 39.182 14.6137C39.7805 14.5609 40.3262 14.4641 40.819 14.3233C41.3295 14.1649 41.7344 13.9536 42.0336 13.6896C42.3505 13.4079 42.5089 13.0559 42.5089 12.6334C42.5089 12.2814 42.3857 11.9733 42.1393 11.7093C41.9104 11.4276 41.5936 11.2076 41.1887 11.0492C40.8014 10.8731 40.3526 10.7851 39.8421 10.7851C39.0324 10.7851 38.3106 10.9699 37.6769 11.3396C37.0608 11.7093 36.5767 12.1933 36.2247 12.7918C35.8726 13.3727 35.679 13.98 35.6438 14.6137C35.855 14.6313 36.1191 14.6489 36.4359 14.6665C36.7528 14.6841 37.0872 14.6929 37.4393 14.6929ZM42.2977 1.22675V4.23684L36.1983 7.00929V4.36886L42.2977 1.22675Z" fill="#1C1917"/>
<path d="M48.2424 18.7328V3.12786H51.9654V18.4952C51.9654 18.8824 52.0798 19.1729 52.3086 19.3665C52.5375 19.5601 52.8103 19.657 53.1272 19.657C53.356 19.657 53.5496 19.6218 53.7081 19.5513L54.3946 22.3766C53.7785 22.6935 53.0744 22.8519 52.2822 22.8519C51.6309 22.8519 50.9884 22.7199 50.3547 22.4558C49.7386 22.1742 49.2281 21.7341 48.8233 21.1356C48.436 20.5195 48.2424 19.7186 48.2424 18.7328Z" fill="#1C1917"/>
<path d="M65.7045 20.6867V8.03906H69.4539V22.6671H67.6848C67.0863 22.6671 66.6022 22.491 66.2326 22.139C65.8805 21.7693 65.7045 21.2852 65.7045 20.6867ZM61.163 22.8519C60.0012 22.8519 58.989 22.6054 58.1265 22.1126C57.2815 21.6197 56.6302 20.9068 56.1725 19.9738C55.7149 19.0409 55.486 17.9143 55.486 16.5941V8.03906H59.1826V15.9604C59.1826 17.1397 59.4819 18.0551 60.0804 18.7064C60.6789 19.3401 61.4622 19.657 62.4304 19.657C63.0993 19.657 63.6802 19.4897 64.173 19.1553C64.6659 18.8032 65.0444 18.3279 65.3084 17.7294C65.5725 17.1309 65.7045 16.4532 65.7045 15.6963L66.2854 16.462C66.2326 17.9231 65.9597 19.1289 65.4669 20.0794C64.9916 21.03 64.3755 21.7341 63.6186 22.1918C62.8792 22.6318 62.0607 22.8519 61.163 22.8519Z" fill="#1C1917"/>
<path d="M72.0186 18.7328V3.12786H75.7416V18.4952C75.7416 18.8824 75.8561 19.1729 76.0849 19.3665C76.3137 19.5601 76.5866 19.657 76.9034 19.657C77.1323 19.657 77.3259 19.6218 77.4843 19.5513L78.1708 22.3766C77.5547 22.6935 76.8506 22.8519 76.0585 22.8519C75.4072 22.8519 74.7647 22.7199 74.131 22.4558C73.5149 22.1742 73.0044 21.7341 72.5995 21.1356C72.2123 20.5195 72.0186 19.7186 72.0186 18.7328Z" fill="#1C1917"/>
<path d="M79.3679 22.6671V8.03906H83.1173V22.6671H79.3679ZM81.269 6.26997C80.5297 6.26997 79.9136 6.04993 79.4207 5.60986C78.9278 5.15219 78.6814 4.5889 78.6814 3.91999C78.6814 3.25108 78.9278 2.68778 79.4207 2.23011C79.9136 1.77244 80.5297 1.5436 81.269 1.5436C82.0083 1.5436 82.6244 1.77244 83.1173 2.23011C83.6102 2.68778 83.8566 3.25108 83.8566 3.91999C83.8566 4.5889 83.6102 5.15219 83.1173 5.60986C82.6244 6.04993 82.0083 6.26997 81.269 6.26997Z" fill="#1C1917"/>
<path d="M94.3728 22.8519C93.2286 22.8519 92.2164 22.5526 91.3363 21.9541C90.4737 21.3556 89.8576 20.5195 89.488 19.4457V20.6867C89.488 21.2852 89.312 21.7693 88.9599 22.139C88.6078 22.491 88.1238 22.6671 87.5077 22.6671H85.7386V3.12786H89.488V11.234C89.8576 10.1778 90.4737 9.35048 91.3363 8.75198C92.2164 8.15348 93.2286 7.85423 94.3728 7.85423C95.6578 7.85423 96.7932 8.17988 97.7789 8.83119C98.7823 9.46489 99.5656 10.345 100.129 11.4716C100.692 12.5982 100.974 13.892 100.974 15.3531C100.974 16.7965 100.692 18.0903 100.129 19.2345C99.5656 20.3611 98.7823 21.25 97.7789 21.9013C96.7932 22.535 95.6578 22.8519 94.3728 22.8519ZM93.3166 19.6042C93.9855 19.6042 94.6104 19.4369 95.1913 19.1025C95.7722 18.768 96.2387 18.2839 96.5907 17.6502C96.9604 17.0165 97.1452 16.2508 97.1452 15.3531C97.1452 14.4201 96.9604 13.6456 96.5907 13.0295C96.2387 12.3958 95.7722 11.9205 95.1913 11.6036C94.6104 11.2692 93.9855 11.102 93.3166 11.102C92.6477 11.102 92.0228 11.2692 91.4419 11.6036C90.861 11.9205 90.3857 12.3958 90.0161 13.0295C89.664 13.6632 89.488 14.4377 89.488 15.3531C89.488 16.2508 89.664 17.0165 90.0161 17.6502C90.3857 18.2839 90.861 18.768 91.4419 19.1025C92.0228 19.4369 92.6477 19.6042 93.3166 19.6042Z" fill="#1C1917"/>
<path d="M11.0483 1.35071C13.3556 0.216241 14.8951 6.7489 15.3716 8.38098C15.7814 9.78452 16.8352 14.6687 18.6841 16.2042C18.7966 16.0638 18.9045 15.9242 19.0034 15.7823C19.4883 15.0872 20.4448 14.9168 21.1401 15.4015C21.8354 15.8865 22.0059 16.8429 21.521 17.5382C19.9384 19.807 17.3037 21.6761 14.4087 23.0294C11.4914 24.3932 8.16168 25.3041 5.03662 25.5587C4.19193 25.6273 3.45134 24.9981 3.38232 24.1534C3.31358 23.3087 3.94285 22.5672 4.7876 22.4982C7.52746 22.2749 10.5029 21.4664 13.1089 20.2482C13.8826 19.8865 14.6102 19.4925 15.2827 19.0773C13.9297 19.182 12.1323 19.1999 10.0474 18.9669C5.3058 18.4369 -0.117565 13.0859 0.36084 9.84973C0.839389 6.61377 4.95385 9.44009 8.27002 12.0333C11.1884 14.3155 13.2434 15.3622 16.6118 17.2384C14.6025 15.8829 11.5476 13.2817 9.98193 10.4054C8.03351 6.82564 8.74099 2.48547 11.0483 1.35071Z" fill="#1C1917"/>
</svg>
